# xmcd
#
# Track frame offsets: 
#        150
#        18817
#        36847
#        46475
#        61687
#        73872
#        106080
#        120750
#        143827
#        158875
#        170620
#
# Disc length: 2617 seconds
#
# Revision: 2
# Processed by: cddbd v1.5.2PL0 Copyright (c) Steve Scherf et al.
# Submitted via: ExactAudioCopy v0.99pb3
#
DISCID=870a370b
DTITLE=Queen Bee and The Blue Hornet Band - Dealin' The Blues
DYEAR=1993
DGENRE=Blues
TTITLE0=Turn Your Love On High
TTITLE1=Queen For A Day
TTITLE2=90 M.P.H.
TTITLE3=Don't Touch Me Baby
TTITLE4=I Wanna Thank You
TTITLE5=Under His Spell
TTITLE6=You Got Me Where You Want Me
TTITLE7=Can't Change A Fool
TTITLE8=That's When It Started
TTITLE9=Lights Out
TTITLE10=Baby What You Want Me To Do
EXTD=
EXTT0=
EXTT1=
EXTT2=
EXTT3=
EXTT4=
EXTT5=
EXTT6=
EXTT7=
EXTT8=
EXTT9=
EXTT10=
PLAYORDER=
